<?xml version="1.0" encoding="utf-8"?>
<!-- Svg Vector Icons : http://www.onlinewebfonts.com/icon -->
<!DOCTYPE svg PUBLIC "-//W3C//DTD SVG 1.1//EN" "http://www.w3.org/Graphics/SVG/1.1/DTD/svg11.dtd">
<svg version="1.1" xmlns="http://www.w3.org/2000/svg" xmlns:xlink="http://www.w3.org/1999/xlink" x="0px" y="0px" viewBox="0 0 1000 1000" enable-background="new 0 0 1000 1000" xml:space="preserve">
<metadata> Svg Vector Icons : http://www.onlinewebfonts.com/icon </metadata>
<g><g transform="translate(0.000000,511.000000) scale(0.100000,-0.100000)"><path d="M100,4491.4v-144.3l302.5-11.9c363.7-13.8,525.8-47.5,741.3-154.2c223.4-108.7,349.9-239.2,468.5-476.4c79.1-160.1,118.6-296.5,318.3-1093.2c126.5-500.1,340-1371.9,474.4-1937.3c260.9-1089.2,395.4-1619.1,476.4-1878c156.2-502.1,434.9-784.8,883.6-899.5c294.5-75.1,436.9-79.1,2716.2-79.1h2218v148.3v146.3l-2326.8,7.9c-2573.9,5.9-2459.2,0-2728.1,132.4c-223.4,110.7-359.8,282.7-460.6,581.2l-55.4,160.1l2662.8,9.9l2660.8,9.9l110.7,51.4c134.4,63.3,259,174,326.2,284.7c27.7,49.4,245.1,757.1,533.8,1751.5c436.9,1504.4,484.3,1678.3,476.4,1779.2c-15.8,189.8-116.6,332.1-290.6,411.2c-89,39.5-108.7,41.5-3817.3,41.5H2061l-53.4,174c-142.3,458.6-338,729.5-656.3,907.4c-257,142.3-622.7,223.4-1018.1,223.4H100V4491.4z M4211.8,3016.6c0-9.9,124.5-846.1,276.8-1856.3C4640.8,152.2,4765.4-680.1,4765.4-688c0-5.9-387.5-11.9-859.9-11.9h-857.9l-19.8,75.1c-11.9,39.5-110.7,446.8-221.4,903.4c-110.7,456.7-306.4,1261.2-434.9,1787.1c-128.5,525.8-235.2,960.8-235.2,964.7c0,2,466.5,5.9,1037.8,5.9C3852.1,3036.4,4211.8,3030.5,4211.8,3016.6z M6880.6,2963.3c2-132.4-61.3-1496.5-71.2-1541.9l-7.9-45.5h-1020c-796.7,0-1020.1,5.9-1026,25.7c-7.9,19.8-247.1,1597.3-247.1,1625c0,5.9,533.8,9.9,1186.1,9.9h1186.1V2963.3z M9547.4,2979.1c43.5-39.5,61.3-75.1,61.3-118.6c0-47.4-296.5-1105.1-397.3-1419.4l-21.8-65.2H8157.6c-569.3,0-1037.9,4-1041.8,7.9c-4,5.9,5.9,314.3,25.7,688c17.8,373.6,33.6,743.3,33.6,822.4l2,142.3h1154.5h1154.5L9547.4,2979.1z M6793.6,996.3c-5.9-47.4-25.7-419.1-41.5-826.3c-17.8-407.2-35.6-771-41.5-804.6l-9.9-65.2h-818.4c-571.3,0-820.4,5.9-820.4,21.7c0,11.9-57.3,403.3-128.5,871.8c-71.2,466.5-128.5,857.9-128.5,867.8c0,9.9,401.3,17.8,1000.3,17.8h998.3L6793.6,996.3z M8883.1,304.4c-243.2-838.2-259-873.8-413.2-952.9c-73.1-39.5-112.7-41.5-774.9-47.4l-697.8-5.9l9.9,85c5.9,47.4,25.7,419.1,41.5,826.3c17.8,407.2,35.6,771,41.5,806.5l9.9,63.3h1004.3h1004.2L8883.1,304.4z"/><path d="M2974.3-2486.9c-630.6-144.3-954.8-822.4-666.2-1399.6c122.6-245.1,379.6-448.8,638.5-508.1c251.1-57.3,547.6-5.9,763.1,132.5c593.1,383.5,589.1,1259.3-9.9,1644.7C3496.2-2486.9,3203.7-2435.5,2974.3-2486.9z M3464.6-2828.9c148.3-67.2,294.6-221.4,351.9-377.6c65.2-172,49.4-385.5-39.5-553.5c-120.6-227.3-302.5-342-563.4-355.8c-227.3-11.9-355.8,39.6-517.9,203.6c-104.8,106.8-128.5,144.3-166.1,266.9c-75.1,251.1-15.8,498.2,166.1,680C2905.1-2757.7,3191.8-2706.3,3464.6-2828.9z"/><path d="M8108.2-2481c-255-43.5-537.7-243.2-670.1-474.4c-96.9-172-128.5-310.4-118.6-539.7c5.9-181.9,13.8-213.5,79.1-353.8c128.5-270.8,347.9-454.7,636.5-537.7c89-25.7,166-31.6,310.4-25.7c170,7.9,209.6,17.8,342,81.1c510,243.1,717.6,816.4,474.4,1316.6c-130.5,264.9-387.5,464.6-674.1,525.8C8337.5-2457.3,8266.4-2455.3,8108.2-2481z M8452.2-2785.4c243.2-63.3,432.9-255,496.2-500.1c39.5-160.1,23.7-290.6-53.4-452.7c-201.6-421.1-755.2-516-1087.3-185.8c-152.2,154.2-201.6,286.6-191.8,516c9.9,205.6,63.3,322.2,207.6,456.6c116.6,108.7,148.3,128.5,286.6,164.1C8246.6-2749.8,8309.9-2749.8,8452.2-2785.4z"/></g></g>
</svg>