<?xml version="1.0" encoding="utf-8"?>
<!-- Svg Vector Icons : http://www.onlinewebfonts.com/icon -->
<!DOCTYPE svg PUBLIC "-//W3C//DTD SVG 1.1//EN" "http://www.w3.org/Graphics/SVG/1.1/DTD/svg11.dtd">
<svg version="1.1" xmlns="http://www.w3.org/2000/svg" xmlns:xlink="http://www.w3.org/1999/xlink" x="0px" y="0px" viewBox="0 0 1000 1000" enable-background="new 0 0 1000 1000" xml:space="preserve">
<metadata> Svg Vector Icons : http://www.onlinewebfonts.com/icon </metadata>
<g><g transform="translate(0.000000,511.000000) scale(0.100000,-0.100000)"><path d="M4302.8,4804.4c-695.7-110.7-1288.5-211.5-1316.2-223.3c-152.2-61.3-294.5-270.8-294.5-436.8c0-69.2,158.1-1063.3,209.5-1312.2l11.9-53.4l-389.3,4l-389.3,5.9l-65.2,199.6c-114.6,349.8-258.9,577.1-468.4,731.2c-282.6,209.5-592.9,302.4-1067.2,318.2l-312.2,11.9v-140.3v-138.3L455,3759c766.8-39.5,1114.6-247,1308.3-776.7c61.3-171.9,377.5-1428.8,770.8-3069.1c351.8-1462.4,442.7-1766.8,594.9-1996c160.1-239.1,417-395.2,778.7-476.3c197.6-45.4,203.5-45.4,2446.6-51.4l2247-7.9v148.2v148.2l-2256.9,7.9c-2025.7,5.9-2272.7,9.9-2393.3,39.5c-276.7,67.2-470.4,187.8-585,365.6c-55.3,87-179.8,389.3-179.8,438.8c0,11.8,960.5,21.7,2594.8,23.7l2592.9,5.9l112.7,53.4c120.5,55.3,268.8,191.7,320.1,290.5c17.8,33.6,243.1,778.7,500,1658.1c523.7,1790.5,521.7,1782.6,415,1964.4c-114.6,195.7-251,253-598.8,253c-134.4,0-245.1,2-245.1,5.9c0,4,21.7,73.1,49.4,152.2c63.2,185.8,65.2,334,2,454.6c-71.1,140.3-166,199.6-436.7,270.7c-130.4,35.6-693.7,183.8-1253,332c-559.3,146.2-1021.7,270.8-1025.7,276.7c-5.9,5.9-25.7,100.8-45.4,215.4c-41.5,243.1-65.2,298.4-183.8,401.2c-98.8,87-201.6,124.5-330,122.5C5607.1,5009.9,4998.4,4917.1,4302.8,4804.4z M5794.9,4662.1l61.3-55.3l136.4-869.6c77.1-478.3,142.3-889.3,148.2-913l9.9-45.5H4678.3H3205.9l-9.9,45.5c-29.6,130.4-207.5,1247-207.5,1304.3c0,77.1,57.3,162.1,124.5,183.8c77.1,25.7,2430.8,399.2,2527.7,401.2C5717.8,4715.5,5745.4,4705.6,5794.9,4662.1z M7449,3636.4c638.3-170,1175.9-320.2,1195.7-337.9c59.3-51.4,57.3-112.6-11.9-314.2l-65.2-195.6H7504.3H6439.1l-83,533.6c-47.4,294.5-88.9,553.4-92.9,579c-4,23.7-2,43.5,5.9,43.5C6279,3944.7,6808.7,3806.4,7449,3636.4z M4488.5,729.3c146.2-966.4,268.8-1784.6,274.7-1818.2l9.9-65.2h-839.9h-837.9L3032-901.1C2998.4-762.8,2872-245,2753.4,249.1c-118.6,494.1-288.5,1191.7-375.5,1549.4c-88.9,357.7-160.1,658.1-160.1,666c0,9.9,452.6,17.8,1003.9,17.8h1004L4488.5,729.3z M6834.4,2290.6c-5.9-106.7-21.7-389.3-31.6-628.4c-9.9-239.1-23.7-517.8-31.6-616.6l-11.9-183.8h-996h-996l-7.9,45.5c-17.8,75.1-229.2,1505.9-229.2,1541.5c0,31.6,85,33.6,1158.1,33.6h1158.1L6834.4,2290.6z M9443.1,2417.1c27.7-31.6,47.4-81,47.4-114.6c0-31.6-88.9-363.6-197.6-739.1c-108.7-373.5-197.6-683.8-197.6-689.7c0-5.9-458.5-11.9-1017.8-11.9H7059.7v45.5c-2,94.9,61.3,1373.5,71.2,1472.3l9.9,102.8l1128.4-4l1126.5-5.9L9443.1,2417.1z M6743.5,492.2c0-112.6-57.3-1337.9-71.2-1502l-11.9-144.3h-798.4c-438.7,0-798.4,7.9-798.4,15.8c0,23.7-235.2,1586.9-249,1650.2l-11.9,53.4h970.4h970.4V492.2z M8996.4,557.4c0-5.9-96.8-343.9-215.4-753c-235.2-806.3-251-843.9-403.1-917c-81.1-39.5-114.6-41.5-751-41.5h-666v45.4c0,23.7,17.8,399.2,39.5,834c21.7,434.8,39.5,802.4,39.5,816.2c0,17.8,209.5,23.7,978.3,23.7C8555.7,565.3,8996.4,561.3,8996.4,557.4z"/><path d="M3067.6-2893.2c-468.4-88.9-790.5-470.4-790.5-936.8c0-375.5,197.6-701.6,519.8-857.7c290.5-140.3,585-136.4,869.6,11.9c737.2,383.4,656.1,1472.3-130.4,1741.1C3403.6-2887.3,3190.1-2869.5,3067.6-2893.2z M3490.5-3227.2c136.4-59.3,274.7-199.6,337.9-343.9c126.5-278.7,31.6-634.4-213.4-802.4c-268.8-183.8-634.4-154.2-857.7,69.2c-306.3,306.3-243.1,808.3,132.4,1041.5C3047.8-3163.9,3312.7-3148.1,3490.5-3227.2z"/><path d="M8077.5-2885.3c-474.3-73.1-820.2-470.4-820.2-944.7c0-462.4,304.4-845.8,747-938.7c500-104.7,1015.8,219.4,1128.5,709.5c110.7,474.3-160.1,968.4-616.6,1124.5C8401.6-2895.2,8182.2-2871.5,8077.5-2885.3z M8488.5-3237.1c189.7-90.9,336-286.6,369.6-500c45.4-276.7-98.8-555.3-359.7-691.7c-92.9-49.4-126.5-55.3-292.5-55.3c-221.3,0-330,41.5-470.4,183.8c-245.1,243.1-258.9,638.3-31.6,891.3c160.1,177.9,312.3,243.1,533.6,231.2C8336.3-3183.7,8411.5-3201.5,8488.5-3237.1z"/></g></g>
</svg>